<?xml version="1.0" encoding="ISO-8859-1" standalone="yes"?>
<!DOCTYPE svg PUBLIC "-//W3C//DTD SVG 20010904//EN"
  "http://www.w3.org/TR/2001/REC-SVG-20010904/DTD/svg10.dtd">
<svg width="11.2118cm" height="8.1909cm" viewBox="482.5234 2364.2031 1589.0703 1160.9219" version="1.0"
    xmlns="http://www.w3.org/2000/svg"
    xmlns:xlink="http://www.w3.org/1999/xlink">
<desc>
  Exported by the ArtWorks SVGExport module.
  Source document: SCSI::Develop.$.Develop.Web.!WebXpress.^.Input.cm.Pages.crypto.algo.tea.artwork.tea1_struct
</desc>
<g transform="matrix(1 0 0 -1 0 5889.3281)" stroke-miterlimit="16" fill-rule="evenodd" clip-rule="evenodd" stroke-linejoin="bevel" stroke-linecap="butt">
<rect x="1020.375" y="3287.875" width="113.4375" height="113.5625" stroke="#000000" stroke-width="5" stroke-linejoin="miter" fill="#c7ebff"/>
<g>
<circle cx="1275.4688" cy="3344.5625" r="42.5156" stroke="#000000" stroke-width="5" stroke-linejoin="miter" fill="#e6e6e6"/>
<path d="M1275.4688 3365.8203 1275.4688 3323.3047" stroke="#000000" stroke-width="5" stroke-linejoin="miter" fill="none"/>
<path d="M1254.2109 3344.5625 1296.7266 3344.5625" stroke="#000000" stroke-width="5" stroke-linejoin="miter" fill="none"/>
</g>
<path d="M1232.9531 3344.5625 1163.75 3344.5625" stroke="#000000" stroke-width="5" stroke-linejoin="miter" fill="none"/>
<path transform="matrix(-0.0833 0 0 -0.0833 1163.75 3344.5625)" stroke="none" fill="#000000" d="M-90 -180 360 0 -90 180 0 0 -90 -180 Z"/>
<path d="M1417.1875 3344.5625 1347.9844 3344.5625" stroke="#000000" stroke-width="5" stroke-linejoin="miter" fill="none"/>
<path transform="matrix(-0.0833 0 0 -0.0833 1347.9844 3344.5625)" stroke="none" fill="#000000" d="M-90 -180 360 0 -90 180 0 0 -90 -180 Z"/>
<rect x="907" y="3287.875" width="113.4375" height="113.5625" stroke="#000000" stroke-width="5" stroke-linejoin="miter" fill="#c7ebff"/>
<rect x="793.625" y="3287.875" width="113.4375" height="113.5625" stroke="#000000" stroke-width="5" stroke-linejoin="miter" fill="#c7ebff"/>
<rect x="680.25" y="3287.875" width="113.4375" height="113.5625" stroke="#000000" stroke-width="5" stroke-linejoin="miter" fill="#c7ebff"/>
<g>
<path d="M714.3984 3353.1953 714.3984 3366.0938 721.6953 3366.0938 C725.1484 3366.0938 731.6484 3366.5938 731.6484 3359.6484 731.6484 3353.4922 725.9453 3353.1953 721.3438 3353.1953 L714.3984 3353.1953 Z M714.3984 3350.1953 723.3438 3350.1953 C729.8984 3350.1953 730.3984 3348.7422 731.1484 3340.4922 731.3438 3337.9453 731.5469 3335.3984 732.3984 3333 L736.1484 3333 C734.6953 3335.1953 734.8984 3337.8984 734.2422 3343.7422 733.7969 3347.9453 732.7969 3351.0469 728.1953 3351.7969 L728.1953 3351.8984 C732.3984 3352.9453 735.1484 3355.7422 735.1484 3359.6484 735.1484 3363.0938 733.9453 3365.6953 731.4453 3367.1953 728.6953 3368.8984 726.0938 3369.0938 722.9453 3369.0938 L711.1484 3369.0938 711.1484 3333 714.3984 3333 714.3984 3350.1953 Z" fill="#000000"/>
</g>
<g>
<path d="M752.1172 3344.875 C757.9922 3344.875 758.5156 3336.9531 758.5156 3332.8359 758.5156 3328.7188 757.9922 3320.7969 752.1172 3320.7969 746.2344 3320.7969 745.7188 3328.7188 745.7188 3332.8359 745.7188 3336.9531 746.2344 3344.875 752.1172 3344.875 Z M752.1172 3347.2734 C744.5547 3347.2734 742.9141 3339.875 742.9141 3332.8359 742.9141 3325.7969 744.5547 3318.3984 752.1172 3318.3984 759.6797 3318.3984 761.3125 3325.7969 761.3125 3332.8359 761.3125 3339.875 759.6797 3347.2734 752.1172 3347.2734 Z" fill="#000000"/>
</g>
<g>
<path d="M831.3984 3353.1953 831.3984 3366.0938 838.6953 3366.0938 C842.1484 3366.0938 848.6484 3366.5938 848.6484 3359.6484 848.6484 3353.4922 842.9453 3353.1953 838.3438 3353.1953 L831.3984 3353.1953 Z M831.3984 3350.1953 840.3438 3350.1953 C846.8984 3350.1953 847.3984 3348.7422 848.1484 3340.4922 848.3438 3337.9453 848.5469 3335.3984 849.3984 3333 L853.1484 3333 C851.6953 3335.1953 851.8984 3337.8984 851.2422 3343.7422 850.7969 3347.9453 849.7969 3351.0469 845.1953 3351.7969 L845.1953 3351.8984 C849.3984 3352.9453 852.1484 3355.7422 852.1484 3359.6484 852.1484 3363.0938 850.9453 3365.6953 848.4453 3367.1953 845.6953 3368.8984 843.0938 3369.0938 839.9453 3369.0938 L828.1484 3369.0938 828.1484 3333 831.3984 3333 831.3984 3350.1953 Z" fill="#000000"/>
</g>
<g>
<path d="M862.6328 3339.7188 C864.875 3340.7969 867.0391 3342.1172 868.875 3343.875 L868.875 3319 871.4766 3319 871.4766 3346.6797 868.9922 3346.6797 C867.1953 3344.875 864.9922 3343.2734 862.6328 3342.3125 L862.6328 3339.7188 Z" fill="#000000"/>
</g>
<g>
<path d="M941.3984 3353.1953 941.3984 3366.0938 948.6953 3366.0938 C952.1484 3366.0938 958.6484 3366.5938 958.6484 3359.6484 958.6484 3353.4922 952.9453 3353.1953 948.3438 3353.1953 L941.3984 3353.1953 Z M941.3984 3350.1953 950.3438 3350.1953 C956.8984 3350.1953 957.3984 3348.7422 958.1484 3340.4922 958.3438 3337.9453 958.5469 3335.3984 959.3984 3333 L963.1484 3333 C961.6953 3335.1953 961.8984 3337.8984 961.2422 3343.7422 960.7969 3347.9453 959.7969 3351.0469 955.1953 3351.7969 L955.1953 3351.8984 C959.3984 3352.9453 962.1484 3355.7422 962.1484 3359.6484 962.1484 3363.0938 960.9453 3365.6953 958.4453 3367.1953 955.6953 3368.8984 953.0938 3369.0938 949.9453 3369.0938 L938.1484 3369.0938 938.1484 3333 941.3984 3333 941.3984 3350.1953 Z" fill="#000000"/>
</g>
<g>
<path d="M988.3984 3319 988.3984 3321.3984 974.1172 3321.3984 C978.3984 3325.5156 988.0391 3333.6328 988.0391 3340.1172 988.0391 3344.9141 984.1953 3347.2734 979.7578 3347.2734 974.9531 3347.2734 971.2734 3344.2344 971.2734 3339.3594 L974.0781 3339.3594 C974.0781 3342.5938 976.3594 3344.875 979.6797 3344.875 982.6797 3344.875 985.2344 3343.1953 985.2344 3339.9531 985.2344 3334.9922 974.5938 3324.9531 970.9922 3321.7188 L970.9922 3319 988.3984 3319 Z" fill="#000000"/>
</g>
<g>
<path d="M1054.3984 3353.1953 1054.3984 3366.0938 1061.6953 3366.0938 C1065.1484 3366.0938 1071.6484 3366.5938 1071.6484 3359.6484 1071.6484 3353.4922 1065.9453 3353.1953 1061.3438 3353.1953 L1054.3984 3353.1953 Z M1054.3984 3350.1953 1063.3438 3350.1953 C1069.8984 3350.1953 1070.3984 3348.7422 1071.1484 3340.4922 1071.3438 3337.9453 1071.5469 3335.3984 1072.3984 3333 L1076.1484 3333 C1074.6953 3335.1953 1074.8984 3337.8984 1074.2422 3343.7422 1073.7969 3347.9453 1072.7969 3351.0469 1068.1953 3351.7969 L1068.1953 3351.8984 C1072.3984 3352.9453 1075.1484 3355.7422 1075.1484 3359.6484 1075.1484 3363.0938 1073.9453 3365.6953 1071.4453 3367.1953 1068.6953 3368.8984 1066.0938 3369.0938 1062.9453 3369.0938 L1051.1484 3369.0938 1051.1484 3333 1054.3984 3333 1054.3984 3350.1953 Z" fill="#000000"/>
</g>
<g>
<path d="M1090.9922 3332.1563 C1094.7969 3332.7188 1099.0781 3331.1563 1099.0781 3326.7188 1099.0781 3322.7578 1096.0391 3320.7969 1092.3594 3320.7969 1089.1563 3320.7969 1086.1172 3322.875 1086.0781 3326.3125 L1083.2734 3326.3125 C1083.4375 3321.0391 1087.5156 3318.3984 1092.3984 3318.3984 1097.0391 3318.3984 1101.875 3321.1953 1101.875 3326.3984 1101.875 3330.1172 1099.3125 3332.6328 1095.7969 3333.3984 L1095.7969 3333.4766 C1098.875 3334.1172 1101.4375 3336.3594 1101.4375 3339.7188 1101.4375 3345.0781 1096.8359 3347.2734 1092.1563 3347.2734 1087.8359 3347.2734 1083.6797 3344.5156 1083.6797 3339.8359 L1086.4766 3339.8359 C1086.8359 3343.0391 1088.9922 3344.875 1092.5156 3344.875 1095.7578 3344.875 1098.6328 3343.0781 1098.6328 3339.875 1098.6328 3335.7188 1094.5547 3334.2734 1090.9922 3334.6797 L1090.9922 3332.1563 Z" fill="#000000"/>
</g>
<rect x="1757.3125" y="3287.875" width="113.4375" height="113.5625" stroke="#000000" stroke-width="5" stroke-linejoin="miter" fill="#c7ebff"/>
<rect x="1643.9375" y="3287.875" width="113.4375" height="113.5625" stroke="#000000" stroke-width="5" stroke-linejoin="miter" fill="#c7ebff"/>
<rect x="1530.5625" y="3287.875" width="113.4375" height="113.5625" stroke="#000000" stroke-width="5" stroke-linejoin="miter" fill="#c7ebff"/>
<rect x="1417.1875" y="3287.875" width="113.4375" height="113.5625" stroke="#000000" stroke-width="5" stroke-linejoin="miter" fill="#c7ebff"/>
<g>
<path d="M1451.3984 3353.1953 1451.3984 3366.0938 1458.6953 3366.0938 C1462.1484 3366.0938 1468.6484 3366.5938 1468.6484 3359.6484 1468.6484 3353.4922 1462.9453 3353.1953 1458.3438 3353.1953 L1451.3984 3353.1953 Z M1451.3984 3350.1953 1460.3438 3350.1953 C1466.8984 3350.1953 1467.3984 3348.7422 1468.1484 3340.4922 1468.3438 3337.9453 1468.5469 3335.3984 1469.3984 3333 L1473.1484 3333 C1471.6953 3335.1953 1471.8984 3337.8984 1471.2422 3343.7422 1470.7969 3347.9453 1469.7969 3351.0469 1465.1953 3351.7969 L1465.1953 3351.8984 C1469.3984 3352.9453 1472.1484 3355.7422 1472.1484 3359.6484 1472.1484 3363.0938 1470.9453 3365.6953 1468.4453 3367.1953 1465.6953 3368.8984 1463.0938 3369.0938 1459.9453 3369.0938 L1448.1484 3369.0938 1448.1484 3333 1451.3984 3333 1451.3984 3350.1953 Z" fill="#000000"/>
</g>
<g>
<path d="M1491.875 3325.4375 1491.875 3319 1494.4766 3319 1494.4766 3325.4375 1498.9141 3325.4375 1498.9141 3327.8359 1494.4766 3327.8359 1494.4766 3346.6797 1491.1953 3346.6797 1478.875 3327.5547 1478.875 3325.4375 1491.875 3325.4375 Z M1491.875 3327.8359 1482.0391 3327.8359 1491.7969 3343.6328 1491.875 3343.6328 1491.875 3327.8359 Z" fill="#000000"/>
</g>
<g>
<path d="M1568.3984 3353.1953 1568.3984 3366.0938 1575.6953 3366.0938 C1579.1484 3366.0938 1585.6484 3366.5938 1585.6484 3359.6484 1585.6484 3353.4922 1579.9453 3353.1953 1575.3438 3353.1953 L1568.3984 3353.1953 Z M1568.3984 3350.1953 1577.3438 3350.1953 C1583.8984 3350.1953 1584.3984 3348.7422 1585.1484 3340.4922 1585.3438 3337.9453 1585.5469 3335.3984 1586.3984 3333 L1590.1484 3333 C1588.6953 3335.1953 1588.8984 3337.8984 1588.2422 3343.7422 1587.7969 3347.9453 1586.7969 3351.0469 1582.1953 3351.7969 L1582.1953 3351.8984 C1586.3984 3352.9453 1589.1484 3355.7422 1589.1484 3359.6484 1589.1484 3363.0938 1587.9453 3365.6953 1585.4453 3367.1953 1582.6953 3368.8984 1580.0938 3369.0938 1576.9453 3369.0938 L1565.1484 3369.0938 1565.1484 3333 1568.3984 3333 1568.3984 3350.1953 Z" fill="#000000"/>
</g>
<g>
<path d="M1598.0391 3330.6328 1600.7188 3330.6328 C1601.2734 3333.2344 1603.6797 3334.8359 1606.3125 3334.8359 1610.4766 3334.8359 1612.5156 3332.1172 1612.5156 3328.1172 1612.5156 3324.1172 1610.4766 3320.7969 1606.1563 3320.7969 1602.9922 3320.7969 1600.4375 3322.4766 1600.2734 3325.7969 L1597.4766 3325.7969 C1597.6328 3320.5547 1601.7578 3318.3984 1606.4375 3318.3984 1611.9141 3318.3984 1615.3125 3322.6797 1615.3125 3327.9922 1615.3125 3332.9531 1612.0781 3337.2344 1606.875 3337.2344 1604.3984 3337.2344 1602.3594 3336.1172 1600.7969 3334.3125 L1600.7188 3334.3984 1601.1563 3344.2734 1613.9141 3344.2734 1613.9141 3346.6797 1598.6797 3346.6797 1598.0391 3330.6328 Z" fill="#000000"/>
</g>
<g>
<path d="M1678.3984 3353.1953 1678.3984 3366.0938 1685.6953 3366.0938 C1689.1484 3366.0938 1695.6484 3366.5938 1695.6484 3359.6484 1695.6484 3353.4922 1689.9453 3353.1953 1685.3438 3353.1953 L1678.3984 3353.1953 Z M1678.3984 3350.1953 1687.3438 3350.1953 C1693.8984 3350.1953 1694.3984 3348.7422 1695.1484 3340.4922 1695.3438 3337.9453 1695.5469 3335.3984 1696.3984 3333 L1700.1484 3333 C1698.6953 3335.1953 1698.8984 3337.8984 1698.2422 3343.7422 1697.7969 3347.9453 1696.7969 3351.0469 1692.1953 3351.7969 L1692.1953 3351.8984 C1696.3984 3352.9453 1699.1484 3355.7422 1699.1484 3359.6484 1699.1484 3363.0938 1697.9453 3365.6953 1695.4453 3367.1953 1692.6953 3368.8984 1690.0938 3369.0938 1686.9453 3369.0938 L1675.1484 3369.0938 1675.1484 3333 1678.3984 3333 1678.3984 3350.1953 Z" fill="#000000"/>
</g>
<g>
<path d="M1717.8359 3334.7578 C1721.9531 3334.7578 1723.6328 3331.2734 1723.6328 3327.6328 1723.6328 3323.7188 1721.3984 3320.7969 1717.3125 3320.7969 1713.7188 3320.7969 1711.0781 3323.9531 1711.0781 3327.4375 1711.0781 3331.5547 1713.4375 3334.7578 1717.8359 3334.7578 Z M1717.875 3347.2734 C1708.9141 3347.2734 1707.7969 3338.5156 1707.7969 3331.4375 1707.7969 3324.7969 1709.9922 3318.3984 1717.7188 3318.3984 1723.1563 3318.3984 1726.4375 3322.5156 1726.4375 3327.7969 1726.4375 3333.0781 1723.4375 3336.9531 1717.9531 3336.9531 1714.7188 3336.9531 1711.9141 3335.4766 1710.6797 3332.4375 L1710.5938 3332.4375 C1710.5938 3337.6328 1711.3594 3344.875 1717.9922 3344.875 1720.8359 3344.875 1723.1563 3343.0781 1723.2734 3340.1953 L1726.0781 3340.1953 C1725.9922 3344.9922 1722.3984 3347.2734 1717.875 3347.2734 Z" fill="#000000"/>
</g>
<g>
<path d="M1791.3984 3353.1953 1791.3984 3366.0938 1798.6953 3366.0938 C1802.1484 3366.0938 1808.6484 3366.5938 1808.6484 3359.6484 1808.6484 3353.4922 1802.9453 3353.1953 1798.3438 3353.1953 L1791.3984 3353.1953 Z M1791.3984 3350.1953 1800.3438 3350.1953 C1806.8984 3350.1953 1807.3984 3348.7422 1808.1484 3340.4922 1808.3438 3337.9453 1808.5469 3335.3984 1809.3984 3333 L1813.1484 3333 C1811.6953 3335.1953 1811.8984 3337.8984 1811.2422 3343.7422 1810.7969 3347.9453 1809.7969 3351.0469 1805.1953 3351.7969 L1805.1953 3351.8984 C1809.3984 3352.9453 1812.1484 3355.7422 1812.1484 3359.6484 1812.1484 3363.0938 1810.9453 3365.6953 1808.4453 3367.1953 1805.6953 3368.8984 1803.0938 3369.0938 1799.9453 3369.0938 L1788.1484 3369.0938 1788.1484 3333 1791.3984 3333 1791.3984 3350.1953 Z" fill="#000000"/>
</g>
<g>
<path d="M1838.6797 3346.6797 1821.0391 3346.6797 1821.0391 3344.2734 1835.9531 3344.2734 1824.875 3319 1827.9141 3319 1838.6797 3344.3594 1838.6797 3346.6797 Z" fill="#000000"/>
</g>
<rect x="807.7969" y="3061.125" width="198.4063" height="113.375" stroke="#000000" stroke-width="5" stroke-linejoin="miter" fill="#ffd9d9"/>
<path d="M850.3125 3287.875 850.3125 3204.5" stroke="#000000" stroke-width="5" stroke-linejoin="miter" fill="none"/>
<path transform="matrix(0 -0.0833 0.0833 0 850.3125 3204.5)" stroke="none" fill="#000000" d="M-90 -180 360 0 -90 180 0 0 -90 -180 Z"/>
<path d="M963.6875 3287.875 963.6875 3204.5" stroke="#000000" stroke-width="5" stroke-linejoin="miter" fill="none"/>
<path transform="matrix(0 -0.0833 0.0833 0 963.6875 3204.5)" stroke="none" fill="#000000" d="M-90 -180 360 0 -90 180 0 0 -90 -180 Z"/>
<g>
<g>
<path d="M887.9922 3106 887.9922 3123.3438 904.5469 3123.3438 904.5469 3126.3438 887.9922 3126.3438 887.9922 3139.0938 905.1484 3139.0938 905.1484 3142.0938 884.7422 3142.0938 884.7422 3106 887.9922 3106 Z" fill="#000000"/>
</g>
<g>
<path d="M928.3984 3092 928.3984 3094.3984 914.1172 3094.3984 C918.3984 3098.5156 928.0391 3106.6328 928.0391 3113.1172 928.0391 3117.9141 924.1953 3120.2734 919.7578 3120.2734 914.9531 3120.2734 911.2734 3117.2344 911.2734 3112.3594 L914.0781 3112.3594 C914.0781 3115.5938 916.3594 3117.875 919.6797 3117.875 922.6797 3117.875 925.2344 3116.1953 925.2344 3112.9531 925.2344 3107.9922 914.5938 3097.9531 910.9922 3094.7188 L910.9922 3092 928.3984 3092 Z" fill="#000000"/>
</g>
</g>
<rect x="1020.375" y="3061.125" width="113.375" height="113.375" stroke="#000000" stroke-width="5" stroke-linejoin="miter" fill="#ffd9d9"/>
<rect x="1544.7344" y="3061.125" width="198.4063" height="113.375" stroke="#000000" stroke-width="5" stroke-linejoin="miter" fill="#ffd9d9"/>
<path d="M1587.25 3287.875 1587.25 3204.5" stroke="#000000" stroke-width="5" stroke-linejoin="miter" fill="none"/>
<path transform="matrix(0 -0.0833 0.0833 0 1587.25 3204.5)" stroke="none" fill="#000000" d="M-90 -180 360 0 -90 180 0 0 -90 -180 Z"/>
<path d="M1700.625 3287.875 1700.625 3204.5" stroke="#000000" stroke-width="5" stroke-linejoin="miter" fill="none"/>
<path transform="matrix(0 -0.0833 0.0833 0 1700.625 3204.5)" stroke="none" fill="#000000" d="M-90 -180 360 0 -90 180 0 0 -90 -180 Z"/>
<g>
<path d="M1624.9922 3106 1624.9922 3123.3438 1641.5469 3123.3438 1641.5469 3126.3438 1624.9922 3126.3438 1624.9922 3139.0938 1642.1484 3139.0938 1642.1484 3142.0938 1621.7422 3142.0938 1621.7422 3106 1624.9922 3106 Z" fill="#000000"/>
</g>
<g>
<path d="M1650.6328 3112.7188 C1652.875 3113.7969 1655.0391 3115.1172 1656.875 3116.875 L1656.875 3092 1659.4766 3092 1659.4766 3119.6797 1656.9922 3119.6797 C1655.1953 3117.875 1652.9922 3116.2734 1650.6328 3115.3125 L1650.6328 3112.7188 Z" fill="#000000"/>
</g>
<path d="M1077.0625 3287.875 1077.0625 3204.5" stroke="#000000" stroke-width="5" stroke-linejoin="miter" fill="none"/>
<path transform="matrix(0 -0.0833 0.0833 0 1077.0625 3204.5)" stroke="none" fill="#000000" d="M-90 -180 360 0 -90 180 0 0 -90 -180 Z"/>
<path d="M1077.0625 3061.125 1077.0625 2977.75" stroke="#000000" stroke-width="5" stroke-linejoin="miter" fill="none"/>
<path transform="matrix(0 -0.0833 0.0833 0 1077.0625 2977.75)" stroke="none" fill="#000000" d="M-90 -180 360 0 -90 180 0 0 -90 -180 Z"/>
<path d="M907 3061.125 907 2977.75" stroke="#000000" stroke-width="5" stroke-linejoin="miter" fill="none"/>
<path transform="matrix(0 -0.0833 0.0833 0 907 2977.75)" stroke="none" fill="#000000" d="M-90 -180 360 0 -90 180 0 0 -90 -180 Z"/>
<path d="M1544.7344 3117.8125 1275.4688 3117.8125 1275.4688 3272.0469" stroke="#000000" stroke-width="5" stroke-linejoin="miter" fill="none"/>
<path transform="matrix(0 0.0833 -0.0833 0 1275.4688 3272.0469)" stroke="none" fill="#000000" d="M-90 -180 360 0 -90 180 0 0 -90 -180 Z"/>
<path d="M680.25 3344.5625 611.0469 3344.5625" stroke="#000000" stroke-width="5" stroke-linejoin="miter" fill="none"/>
<path transform="matrix(-0.0833 0 0 -0.0833 611.0469 3344.5625)" stroke="none" fill="#000000" d="M-90 -180 360 0 -90 180 0 0 -90 -180 Z"/>
<g>
<path d="M486.4766 3344.4375 C486.4766 3350.7578 489.3594 3357.0781 496.5547 3357.0781 503.7578 3357.0781 506.6328 3350.7578 506.6328 3344.4375 506.6328 3338.1172 503.7578 3331.7969 496.5547 3331.7969 489.3594 3331.7969 486.4766 3338.1172 486.4766 3344.4375 L486.4766 3344.4375 Z M509.4375 3344.4375 C509.4375 3353.4375 504.8359 3359.4766 496.5547 3359.4766 488.2734 3359.4766 483.6797 3353.4375 483.6797 3344.4375 483.6797 3335.4375 488.2734 3329.3984 496.5547 3329.3984 504.8359 3329.3984 509.4375 3335.4375 509.4375 3344.4375 L509.4375 3344.4375 Z" fill="#000000"/>
<path d="M515.875 3358.875 515.875 3340.1563 C515.9531 3333.9531 519.4375 3329.3984 526.4375 3329.3984 533.4375 3329.3984 536.9141 3333.9531 536.9922 3340.1563 L536.9922 3358.875 534.3984 3358.875 534.3984 3340.1953 C534.1953 3334.9531 531.1953 3331.7969 526.4375 3331.7969 521.6797 3331.7969 518.6797 3334.9531 518.4766 3340.1953 L518.4766 3358.875 515.875 3358.875 Z" fill="#000000"/>
<path d="M550.9141 3330 553.4766 3330 553.5156 3356.4766 562.6797 3356.4766 562.6797 3358.875 541.5547 3358.875 541.5547 3356.4766 550.875 3356.4766 550.9141 3330 Z" fill="#000000"/>
</g>
<g>
<circle cx="907" cy="2905.2344" r="42.5156" stroke="#000000" stroke-width="5" stroke-linejoin="miter" fill="#e6e6e6"/>
<path d="M907 2926.4922 907 2883.9766" stroke="#000000" stroke-width="5" stroke-linejoin="miter" fill="none"/>
<path d="M885.7422 2905.2344 928.2578 2905.2344" stroke="#000000" stroke-width="5" stroke-linejoin="miter" fill="none"/>
</g>
<g>
<circle cx="1077.0625" cy="2905.2344" r="42.5156" stroke="#000000" stroke-width="5" stroke-linejoin="miter" fill="#e6e6e6"/>
<path d="M1077.0625 2926.4922 1077.0625 2883.9766" stroke="#000000" stroke-width="5" stroke-linejoin="miter" fill="none"/>
<path d="M1055.8047 2905.2344 1098.3203 2905.2344" stroke="#000000" stroke-width="5" stroke-linejoin="miter" fill="none"/>
</g>
<g>
<circle cx="2012.4063" cy="2905.2344" r="42.5156" stroke="#000000" stroke-width="5" stroke-linejoin="miter" fill="#e6e6e6"/>
<path d="M2012.4063 2926.4922 2012.4063 2883.9766" stroke="#000000" stroke-width="5" stroke-linejoin="miter" fill="none"/>
<path d="M1991.1484 2905.2344 2033.6641 2905.2344" stroke="#000000" stroke-width="5" stroke-linejoin="miter" fill="none"/>
</g>
<path d="M736.9375 3287.875 736.9375 2905.2344 834.4844 2905.2344" stroke="#000000" stroke-width="5" stroke-linejoin="miter" fill="none"/>
<path transform="matrix(0.0833 0 0 0.0833 834.4844 2905.2344)" stroke="none" fill="#000000" d="M-90 -180 360 0 -90 180 0 0 -90 -180 Z"/>
<path d="M949.5156 2905.2344 1004.5469 2905.2344" stroke="#000000" stroke-width="5" stroke-linejoin="miter" fill="none"/>
<path transform="matrix(0.0833 0 0 0.0833 1004.5469 2905.2344)" stroke="none" fill="#000000" d="M-90 -180 360 0 -90 180 0 0 -90 -180 Z"/>
<path d="M1119.5781 2905.2344 1939.8906 2905.2344" stroke="#000000" stroke-width="5" stroke-linejoin="miter" fill="none"/>
<path transform="matrix(0.0833 0 0 0.0833 1939.8906 2905.2344)" stroke="none" fill="#000000" d="M-90 -180 360 0 -90 180 0 0 -90 -180 Z"/>
<path d="M2012.4063 2947.75 2012.4063 3344.5625 1900.6875 3344.5625" stroke="#000000" stroke-width="5" stroke-linejoin="miter" fill="none"/>
<path transform="matrix(-0.0833 0 0 -0.0833 1900.6875 3344.5625)" stroke="none" fill="#000000" d="M-90 -180 360 0 -90 180 0 0 -90 -180 Z"/>
<path d="M1814 2579.2813 1814 2495.9063" stroke="#000000" stroke-width="5" stroke-linejoin="miter" fill="none"/>
<path transform="matrix(0 -0.0833 0.0833 0 1814 2495.9063)" stroke="none" fill="#000000" d="M-90 -180 360 0 -90 180 0 0 -90 -180 Z"/>
<g>
<circle cx="1814" cy="2423.3906" r="42.5156" stroke="#000000" stroke-width="5" stroke-linejoin="miter" fill="#e6e6e6"/>
<path d="M1814 2444.6484 1814 2402.1328" stroke="#000000" stroke-width="5" stroke-linejoin="miter" fill="none"/>
<path d="M1792.7422 2423.3906 1835.2578 2423.3906" stroke="#000000" stroke-width="5" stroke-linejoin="miter" fill="none"/>
</g>
<path d="M1473.875 2579.2813 1473.875 2423.3906 1741.4844 2423.3906" stroke="#000000" stroke-width="5" stroke-linejoin="miter" fill="none"/>
<path transform="matrix(0.0833 0 0 0.0833 1741.4844 2423.3906)" stroke="none" fill="#000000" d="M-90 -180 360 0 -90 180 0 0 -90 -180 Z"/>
<path d="M1856.5156 2423.3906 1925.7188 2423.3906" stroke="#000000" stroke-width="5" stroke-linejoin="miter" fill="none"/>
<path transform="matrix(0.0833 0 0 0.0833 1925.7188 2423.3906)" stroke="none" fill="#000000" d="M-90 -180 360 0 -90 180 0 0 -90 -180 Z"/>
<rect x="1955.7188" y="2366.7031" width="113.375" height="113.375" stroke="#000000" stroke-width="5" stroke-linejoin="miter" fill="#ffd9d9"/>
<path d="M2012.4063 2480.0781 2012.4063 2832.7188" stroke="#000000" stroke-width="5" stroke-linejoin="miter" fill="none"/>
<path transform="matrix(0 0.0833 -0.0833 0 2012.4063 2832.7188)" stroke="none" fill="#000000" d="M-90 -180 360 0 -90 180 0 0 -90 -180 Z"/>
<path d="M2012.4063 2635.9688 1900.6875 2635.9688" stroke="#000000" stroke-width="5" stroke-linejoin="miter" fill="none"/>
<path transform="matrix(-0.0833 0 0 -0.0833 1900.6875 2635.9688)" stroke="none" fill="#000000" d="M-90 -180 360 0 -90 180 0 0 -90 -180 Z"/>
<circle cx="2012.4219" cy="2635.9922" r="11.0625" stroke="#000000" stroke-width="7.7891" stroke-linejoin="miter" fill="#191919"/>
<g>
<path d="M2026.6484 2415.4922 C2026.6484 2427.9453 2006.2422 2423.2969 2006.2422 2433.5469 2006.2422 2437.9453 2010.8984 2439.8438 2014.6484 2439.8438 2018.3438 2439.8438 2022.3984 2438.6953 2022.4922 2434.2422 L2025.9922 2434.2422 C2025.1953 2441.1953 2018.9922 2442.8438 2014.2422 2442.8438 2008.5469 2442.8438 2002.7422 2439.3984 2002.7422 2433.0938 2002.7422 2425.2969 2011.6484 2423.4453 2017.4922 2421.4922 2020.5469 2420.4922 2023.1484 2418.7969 2023.1484 2415.1953 2023.1484 2410.5938 2018.4922 2408.2422 2014.4453 2408.2422 2009.5938 2408.2422 2005.4922 2409.8438 2005.3984 2415.3984 L2001.8984 2415.3984 C2002.0469 2409.4453 2006.8984 2405.25 2012.6484 2405.25 2019.8984 2405.25 2026.6484 2407.6484 2026.6484 2415.4922 L2026.6484 2415.4922 Z" fill="#000000"/>
</g>
<path d="M1877.7734 3443.7656 710.25 3443.7656" stroke="#b3b3b3" stroke-width="5" stroke-linejoin="miter" fill="none"/>
<path transform="matrix(-0.0833 0 0 -0.0833 710.25 3443.7656)" stroke="none" fill="#b3b3b3" d="M-90 -180 360 0 -90 180 0 0 -90 -180 Z"/>
<path d="M1870.6875 2735.1719 1447.1875 2735.1719" stroke="#b3b3b3" stroke-width="5" stroke-linejoin="miter" fill="none"/>
<path transform="matrix(-0.0833 0 0 -0.0833 1447.1875 2735.1719)" stroke="none" fill="#b3b3b3" d="M-90 -180 360 0 -90 180 0 0 -90 -180 Z"/>
<g>
<path d="M1069.2422 3118.1953 1075.2422 3118.1953 C1082.0469 3118.1953 1086.9922 3117.2422 1086.9922 3111.0938 1086.9922 3105.5469 1083.3984 3103.8984 1077.1953 3103.9922 L1069.2422 3103.9922 1069.2422 3118.1953 Z M1069.2422 3121.1953 1069.2422 3134.0938 1076.9453 3134.0938 C1081.1953 3134.0469 1085.4922 3132.9922 1085.4922 3127.7422 1085.4922 3122.8438 1081.2969 3121.1953 1077.0938 3121.1953 L1069.2422 3121.1953 Z M1079.7422 3101 C1087.5938 3101 1090.4922 3105.8984 1090.4922 3110.6484 1090.4922 3115.7969 1087.1953 3118.9922 1082.2969 3119.7969 L1082.2969 3119.8984 C1086.0938 3120.7969 1088.9922 3124.0469 1088.9922 3128.0469 1088.9922 3133.7969 1084.2969 3137.0469 1078.9453 3137.0469 L1065.9922 3137.0938 1065.9922 3101 1079.7422 3101 Z" fill="#000000"/>
</g>
<g>
<path d="M1110.6484 3495.4922 C1110.6484 3507.9453 1090.2422 3503.2969 1090.2422 3513.5469 1090.2422 3517.9453 1094.8984 3519.8438 1098.6484 3519.8438 1102.3438 3519.8438 1106.3984 3518.6953 1106.4922 3514.2422 L1109.9922 3514.2422 C1109.1953 3521.1953 1102.9922 3522.8438 1098.2422 3522.8438 1092.5469 3522.8438 1086.7422 3519.3984 1086.7422 3513.0938 1086.7422 3505.2969 1095.6484 3503.4453 1101.4922 3501.4922 1104.5469 3500.4922 1107.1484 3498.7969 1107.1484 3495.1953 1107.1484 3490.5938 1102.4922 3488.2422 1098.4453 3488.2422 1093.5938 3488.2422 1089.4922 3489.8438 1089.3984 3495.3984 L1085.8984 3495.3984 C1086.0469 3489.4453 1090.8984 3485.25 1096.6484 3485.25 1103.8984 3485.25 1110.6484 3487.6484 1110.6484 3495.4922 L1110.6484 3495.4922 Z" fill="#000000"/>
<path d="M1120.1484 3492.6953 C1120.1484 3489.2969 1119.7969 3485.25 1126.1484 3485.25 1127.1484 3485.25 1128.2422 3485.4453 1129.1953 3485.6953 L1129.1953 3488.2969 C1128.3984 3488.0469 1127.4922 3487.9922 1126.5938 3487.9922 1124.2969 3487.9922 1123.0938 3489.2422 1123.1484 3491.5469 L1123.1484 3508.3438 1128.8438 3508.3438 1128.8438 3511.0938 1123.1484 3511.0938 1123.1484 3517.7422 1120.1484 3516.4453 1120.1484 3511.0938 1115.1484 3511.0938 1115.1484 3508.3438 1120.1484 3508.3438 1120.1484 3492.6953 Z" fill="#000000"/>
<path d="M1135.0469 3492.9922 C1135.0469 3499.2969 1143.9453 3498.4922 1148.1953 3498.6484 1148.4922 3493.3984 1147.2422 3487.9922 1140.6953 3487.9922 1137.6484 3487.9922 1135.0469 3489.5938 1135.0469 3492.9922 L1135.0469 3492.9922 Z M1148.1953 3501.3984 C1144.5469 3501.1953 1140.1953 3501.6953 1136.8438 3500.2422 1133.8438 3498.9922 1131.7969 3496.3984 1131.7969 3492.9922 1131.7969 3488.0938 1135.4922 3485.25 1140.1484 3485.25 1143.5469 3485.25 1146.8984 3487.2422 1147.9922 3489.3438 L1148.1484 3489.6953 1148.2422 3489.6953 1148.3438 3486 1151.4453 3486 C1151.3438 3487.6953 1151.1484 3489.6953 1151.1953 3491.6484 L1151.1953 3503.5469 C1151.2969 3509.2969 1147.8438 3511.8438 1142.2969 3511.8438 1137.4922 3511.8438 1133.6484 3509.8984 1132.8984 3504.7422 L1136.0938 3504.7422 C1136.4922 3508.1484 1139.0938 3509.0938 1142.2422 3509.0938 1145.7969 3509.0938 1147.8984 3507.7969 1148.1953 3503.6953 L1148.1953 3501.3984 Z" fill="#000000"/>
<path d="M1161.1484 3492.6953 C1161.1484 3489.2969 1160.7969 3485.25 1167.1484 3485.25 1168.1484 3485.25 1169.2422 3485.4453 1170.1953 3485.6953 L1170.1953 3488.2969 C1169.3984 3488.0469 1168.4922 3487.9922 1167.5938 3487.9922 1165.2969 3487.9922 1164.0938 3489.2422 1164.1484 3491.5469 L1164.1484 3508.3438 1169.8438 3508.3438 1169.8438 3511.0938 1164.1484 3511.0938 1164.1484 3517.7422 1161.1484 3516.4453 1161.1484 3511.0938 1156.1484 3511.0938 1156.1484 3508.3438 1161.1484 3508.3438 1161.1484 3492.6953 Z" fill="#000000"/>
<path d="M1197.1484 3497.8438 C1197.1484 3505.6953 1194.0938 3511.8438 1185.6953 3511.8438 1178.2422 3511.8438 1174.4922 3505.3438 1174.4922 3498.5469 1174.4922 3491.6953 1177.9922 3485.25 1185.4922 3485.25 1191.5469 3485.25 1195.2969 3487.9922 1196.8438 3493.9922 L1193.6953 3493.9922 C1192.9453 3490.5469 1189.9922 3487.9922 1186.4453 3487.9922 1180.2969 3487.9922 1177.8438 3492.4922 1177.7422 3497.8438 L1197.1484 3497.8438 Z M1177.8438 3500.5938 C1178.2422 3504.9922 1180.8438 3509.0938 1185.7422 3509.0938 1190.9453 3509.0938 1193.5469 3505.4453 1193.8984 3500.5938 L1177.8438 3500.5938 Z" fill="#000000"/>
<path d="M1222.3984 3506.1953 1222.3984 3519.0938 1229.6953 3519.0938 C1233.1484 3519.0938 1239.6484 3519.5938 1239.6484 3512.6484 1239.6484 3506.4922 1233.9453 3506.1953 1229.3438 3506.1953 L1222.3984 3506.1953 Z M1222.3984 3503.1953 1231.3438 3503.1953 C1237.8984 3503.1953 1238.3984 3501.7422 1239.1484 3493.4922 1239.3438 3490.9453 1239.5469 3488.3984 1240.3984 3486 L1244.1484 3486 C1242.6953 3488.1953 1242.8984 3490.8984 1242.2422 3496.7422 1241.7969 3500.9453 1240.7969 3504.0469 1236.1953 3504.7969 L1236.1953 3504.8984 C1240.3984 3505.9453 1243.1484 3508.7422 1243.1484 3512.6484 1243.1484 3516.0938 1241.9453 3518.6953 1239.4453 3520.1953 1236.6953 3521.8984 1234.0938 3522.0938 1230.9453 3522.0938 L1219.1484 3522.0938 1219.1484 3486 1222.3984 3486 1222.3984 3503.1953 Z" fill="#000000"/>
<path d="M1272.1484 3497.8438 C1272.1484 3505.6953 1269.0938 3511.8438 1260.6953 3511.8438 1253.2422 3511.8438 1249.4922 3505.3438 1249.4922 3498.5469 1249.4922 3491.6953 1252.9922 3485.25 1260.4922 3485.25 1266.5469 3485.25 1270.2969 3487.9922 1271.8438 3493.9922 L1268.6953 3493.9922 C1267.9453 3490.5469 1264.9922 3487.9922 1261.4453 3487.9922 1255.2969 3487.9922 1252.8438 3492.4922 1252.7422 3497.8438 L1272.1484 3497.8438 Z M1252.8438 3500.5938 C1253.2422 3504.9922 1255.8438 3509.0938 1260.7422 3509.0938 1265.9453 3509.0938 1268.5469 3505.4453 1268.8984 3500.5938 L1252.8438 3500.5938 Z" fill="#000000"/>
<path d="M1296.2969 3499.0938 C1296.2969 3494.1953 1294.0938 3488.8438 1288.3438 3488.8438 1282.8438 3488.8438 1280.4922 3494.3984 1280.4922 3498.9922 1280.4922 3503.5938 1282.7969 3509.0938 1288.2422 3509.0938 1293.6484 3509.0938 1296.2969 3503.8984 1296.2969 3499.0938 L1296.2969 3499.0938 Z M1296.2969 3507.3984 1296.1953 3507.1953 C1294.1953 3510.0938 1291.5938 3511.8438 1287.9453 3511.8438 1280.2969 3511.8438 1277.2422 3505.5469 1277.2422 3498.7422 1277.2422 3491.8438 1280.4922 3486.0938 1288.0469 3486.0938 1291.2969 3486.0938 1294.7422 3487.8438 1296.1953 3490.7969 L1296.2969 3490.7969 1296.2969 3486.0938 C1296.1953 3481.8984 1292.5938 3479.1484 1288.6953 3479.1484 1285.4922 3479.1484 1281.9453 3480.1484 1281.5938 3483.1484 L1278.3438 3483.1484 C1278.3438 3477.9453 1283.7422 3476.3984 1288.2969 3476.3984 1290.6484 3476.3984 1291.9922 3476.5938 1293.9922 3477.5469 1299.5469 3480.1484 1299.2969 3485.3984 1299.2969 3490.3984 L1299.2969 3505.4453 C1299.2969 3507.3984 1299.4453 3509.3984 1299.5469 3511.0938 L1296.4453 3511.0938 1296.2969 3507.3984 Z" fill="#000000"/>
<path d="M1307.0469 3511.0938 1307.0469 3486 1310.0469 3486 1310.0469 3511.0938 1307.0469 3511.0938 Z M1310.2969 3522.0938 1306.7969 3522.0938 1306.7969 3518.3438 1310.2969 3518.3438 1310.2969 3522.0938 Z" fill="#000000"/>
<path d="M1317.1484 3504.8438 C1317.1484 3500.1953 1321.1484 3499.0469 1325.0938 3498.0938 1329.0938 3497.1953 1333.0469 3496.5938 1333.0469 3492.9922 1333.0469 3489.4922 1329.6953 3487.9922 1326.4922 3487.9922 1323.0938 3487.9922 1319.7969 3489.0938 1319.5469 3492.8438 L1316.2969 3492.8438 C1316.3984 3487.2969 1321.3984 3485.25 1325.7422 3485.25 1331.0469 3485.25 1336.2969 3487.7969 1336.2969 3493.4453 1336.2969 3496.1484 1334.6484 3498.3984 1332.0469 3499.2969 1325.2422 3501.6953 1320.3984 3501.3438 1320.3984 3505.0469 1320.3984 3507.9922 1323.2422 3509.0938 1326.0469 3509.0938 1329.1484 3509.0938 1331.9453 3508.0469 1332.2422 3504.8984 L1335.4922 3504.8984 C1335.0938 3510.1953 1331.0938 3511.8438 1326.3438 3511.8438 1321.9453 3511.8438 1317.1484 3510.0469 1317.1484 3504.8438 L1317.1484 3504.8438 Z" fill="#000000"/>
<path d="M1345.1484 3492.6953 C1345.1484 3489.2969 1344.7969 3485.25 1351.1484 3485.25 1352.1484 3485.25 1353.2422 3485.4453 1354.1953 3485.6953 L1354.1953 3488.2969 C1353.3984 3488.0469 1352.4922 3487.9922 1351.5938 3487.9922 1349.2969 3487.9922 1348.0938 3489.2422 1348.1484 3491.5469 L1348.1484 3508.3438 1353.8438 3508.3438 1353.8438 3511.0938 1348.1484 3511.0938 1348.1484 3517.7422 1345.1484 3516.4453 1345.1484 3511.0938 1340.1484 3511.0938 1340.1484 3508.3438 1345.1484 3508.3438 1345.1484 3492.6953 Z" fill="#000000"/>
<path d="M1380.1484 3497.8438 C1380.1484 3505.6953 1377.0938 3511.8438 1368.6953 3511.8438 1361.2422 3511.8438 1357.4922 3505.3438 1357.4922 3498.5469 1357.4922 3491.6953 1360.9922 3485.25 1368.4922 3485.25 1374.5469 3485.25 1378.2969 3487.9922 1379.8438 3493.9922 L1376.6953 3493.9922 C1375.9453 3490.5469 1372.9922 3487.9922 1369.4453 3487.9922 1363.2969 3487.9922 1360.8438 3492.4922 1360.7422 3497.8438 L1380.1484 3497.8438 Z M1360.8438 3500.5938 C1361.2422 3504.9922 1363.8438 3509.0938 1368.7422 3509.0938 1373.9453 3509.0938 1376.5469 3505.4453 1376.8984 3500.5938 L1360.8438 3500.5938 Z" fill="#000000"/>
<path d="M1389.9922 3501.0938 C1390.0938 3505.8984 1392.4453 3509.0938 1396.8984 3509.0938 1397.4922 3509.0938 1398.1484 3508.9453 1398.7422 3508.8984 L1398.7422 3511.7969 C1397.7422 3511.8438 1396.7422 3511.8984 1395.7422 3511.8438 1393.2422 3511.7422 1390.9922 3509.9453 1390.0938 3507.3984 L1389.9922 3507.3984 1389.8438 3511.0938 1386.7422 3511.0938 C1386.8438 3509.3984 1387.0469 3507.3984 1386.9922 3505.4453 L1386.9922 3486 1389.9922 3486 1389.9922 3501.0938 Z" fill="#000000"/>
<path d="M1425.6953 3481.1953 C1423.3984 3487.0938 1421.2969 3494.7969 1421.2969 3501.6484 1421.2969 3508.0938 1423.0469 3515.3438 1425.6953 3522.0938 L1423.1953 3522.0938 C1420.6484 3515.5938 1417.7969 3508.6953 1417.7969 3501.6484 1417.7969 3494.4453 1420.6953 3487.7422 1423.1484 3481.1953 L1425.6953 3481.1953 Z" fill="#000000"/>
<path d="M1436.3984 3506.1953 1436.3984 3519.0938 1443.6953 3519.0938 C1447.1484 3519.0938 1453.6484 3519.5938 1453.6484 3512.6484 1453.6484 3506.4922 1447.9453 3506.1953 1443.3438 3506.1953 L1436.3984 3506.1953 Z M1436.3984 3503.1953 1445.3438 3503.1953 C1451.8984 3503.1953 1452.3984 3501.7422 1453.1484 3493.4922 1453.3438 3490.9453 1453.5469 3488.3984 1454.3984 3486 L1458.1484 3486 C1456.6953 3488.1953 1456.8984 3490.8984 1456.2422 3496.7422 1455.7969 3500.9453 1454.7969 3504.0469 1450.1953 3504.7969 L1450.1953 3504.8984 C1454.3984 3505.9453 1457.1484 3508.7422 1457.1484 3512.6484 1457.1484 3516.0938 1455.9453 3518.6953 1453.4453 3520.1953 1450.6953 3521.8984 1448.0938 3522.0938 1444.9453 3522.0938 L1433.1484 3522.0938 1433.1484 3486 1436.3984 3486 1436.3984 3503.1953 Z" fill="#000000"/>
<path d="M1465.7422 3481.1953 C1468.1953 3487.7422 1471.0938 3494.4453 1471.0938 3501.6484 1471.0938 3508.6953 1468.2422 3515.5938 1465.6953 3522.0938 L1463.1953 3522.0938 C1465.8438 3515.3438 1467.5938 3508.0938 1467.5938 3501.6484 1467.5938 3494.7969 1465.4922 3487.0938 1463.1953 3481.1953 L1465.7422 3481.1953 Z" fill="#000000"/>
</g>
<g>
<path d="M1487.4922 2777 1487.5469 2795.8438 1504.8438 2777 1509.2969 2777 1491.1484 2796.7969 1507.7969 2813.0938 1503.6953 2813.0938 1487.5469 2797.1953 1487.4922 2813.0938 1484.2969 2813.0938 1484.2969 2777 1487.4922 2777 Z" fill="#000000"/>
<path d="M1535.1484 2788.8438 C1535.1484 2796.6953 1532.0938 2802.8438 1523.6953 2802.8438 1516.2422 2802.8438 1512.4922 2796.3438 1512.4922 2789.5469 1512.4922 2782.6953 1515.9922 2776.25 1523.4922 2776.25 1529.5469 2776.25 1533.2969 2778.9922 1534.8438 2784.9922 L1531.6953 2784.9922 C1530.9453 2781.5469 1527.9922 2778.9922 1524.4453 2778.9922 1518.2969 2778.9922 1515.8438 2783.4922 1515.7422 2788.8438 L1535.1484 2788.8438 Z M1515.8438 2791.5938 C1516.2422 2795.9922 1518.8438 2800.0938 1523.7422 2800.0938 1528.9453 2800.0938 1531.5469 2796.4453 1531.8984 2791.5938 L1515.8438 2791.5938 Z" fill="#000000"/>
<path d="M1537.3984 2802.0938 1547.7969 2777 1543.9922 2767.3984 1547.2969 2767.3984 1561.1484 2802.0938 1557.8984 2802.0938 1549.4922 2781.0938 1541.0469 2802.0938 1537.3984 2802.0938 Z" fill="#000000"/>
<path d="M1584.3984 2797.1953 1584.3984 2810.0938 1591.6953 2810.0938 C1595.1484 2810.0938 1601.6484 2810.5938 1601.6484 2803.6484 1601.6484 2797.4922 1595.9453 2797.1953 1591.3438 2797.1953 L1584.3984 2797.1953 Z M1584.3984 2794.1953 1593.3438 2794.1953 C1599.8984 2794.1953 1600.3984 2792.7422 1601.1484 2784.4922 1601.3438 2781.9453 1601.5469 2779.3984 1602.3984 2777 L1606.1484 2777 C1604.6953 2779.1953 1604.8984 2781.8984 1604.2422 2787.7422 1603.7969 2791.9453 1602.7969 2795.0469 1598.1953 2795.7969 L1598.1953 2795.8984 C1602.3984 2796.9453 1605.1484 2799.7422 1605.1484 2803.6484 1605.1484 2807.0938 1603.9453 2809.6953 1601.4453 2811.1953 1598.6953 2812.8984 1596.0938 2813.0938 1592.9453 2813.0938 L1581.1484 2813.0938 1581.1484 2777 1584.3984 2777 1584.3984 2794.1953 Z" fill="#000000"/>
<path d="M1635.1484 2788.8438 C1635.1484 2796.6953 1632.0938 2802.8438 1623.6953 2802.8438 1616.2422 2802.8438 1612.4922 2796.3438 1612.4922 2789.5469 1612.4922 2782.6953 1615.9922 2776.25 1623.4922 2776.25 1629.5469 2776.25 1633.2969 2778.9922 1634.8438 2784.9922 L1631.6953 2784.9922 C1630.9453 2781.5469 1627.9922 2778.9922 1624.4453 2778.9922 1618.2969 2778.9922 1615.8438 2783.4922 1615.7422 2788.8438 L1635.1484 2788.8438 Z M1615.8438 2791.5938 C1616.2422 2795.9922 1618.8438 2800.0938 1623.7422 2800.0938 1628.9453 2800.0938 1631.5469 2796.4453 1631.8984 2791.5938 L1615.8438 2791.5938 Z" fill="#000000"/>
<path d="M1658.2969 2790.0938 C1658.2969 2785.1953 1656.0938 2779.8438 1650.3438 2779.8438 1644.8438 2779.8438 1642.4922 2785.3984 1642.4922 2789.9922 1642.4922 2794.5938 1644.7969 2800.0938 1650.2422 2800.0938 1655.6484 2800.0938 1658.2969 2794.8984 1658.2969 2790.0938 L1658.2969 2790.0938 Z M1658.2969 2798.3984 1658.1953 2798.1953 C1656.1953 2801.0938 1653.5938 2802.8438 1649.9453 2802.8438 1642.2969 2802.8438 1639.2422 2796.5469 1639.2422 2789.7422 1639.2422 2782.8438 1642.4922 2777.0938 1650.0469 2777.0938 1653.2969 2777.0938 1656.7422 2778.8438 1658.1953 2781.7969 L1658.2969 2781.7969 1658.2969 2777.0938 C1658.1953 2772.8984 1654.5938 2770.1484 1650.6953 2770.1484 1647.4922 2770.1484 1643.9453 2771.1484 1643.5938 2774.1484 L1640.3438 2774.1484 C1640.3438 2768.9453 1645.7422 2767.3984 1650.2969 2767.3984 1652.6484 2767.3984 1653.9922 2767.5938 1655.9922 2768.5469 1661.5469 2771.1484 1661.2969 2776.3984 1661.2969 2781.3984 L1661.2969 2796.4453 C1661.2969 2798.3984 1661.4453 2800.3984 1661.5469 2802.0938 L1658.4453 2802.0938 1658.2969 2798.3984 Z" fill="#000000"/>
<path d="M1669.0469 2802.0938 1669.0469 2777 1672.0469 2777 1672.0469 2802.0938 1669.0469 2802.0938 Z M1672.2969 2813.0938 1668.7969 2813.0938 1668.7969 2809.3438 1672.2969 2809.3438 1672.2969 2813.0938 Z" fill="#000000"/>
<path d="M1679.1484 2795.8438 C1679.1484 2791.1953 1683.1484 2790.0469 1687.0938 2789.0938 1691.0938 2788.1953 1695.0469 2787.5938 1695.0469 2783.9922 1695.0469 2780.4922 1691.6953 2778.9922 1688.4922 2778.9922 1685.0938 2778.9922 1681.7969 2780.0938 1681.5469 2783.8438 L1678.2969 2783.8438 C1678.3984 2778.2969 1683.3984 2776.25 1687.7422 2776.25 1693.0469 2776.25 1698.2969 2778.7969 1698.2969 2784.4453 1698.2969 2787.1484 1696.6484 2789.3984 1694.0469 2790.2969 1687.2422 2792.6953 1682.3984 2792.3438 1682.3984 2796.0469 1682.3984 2798.9922 1685.2422 2800.0938 1688.0469 2800.0938 1691.1484 2800.0938 1693.9453 2799.0469 1694.2422 2795.8984 L1697.4922 2795.8984 C1697.0938 2801.1953 1693.0938 2802.8438 1688.3438 2802.8438 1683.9453 2802.8438 1679.1484 2801.0469 1679.1484 2795.8438 L1679.1484 2795.8438 Z" fill="#000000"/>
<path d="M1707.1484 2783.6953 C1707.1484 2780.2969 1706.7969 2776.25 1713.1484 2776.25 1714.1484 2776.25 1715.2422 2776.4453 1716.1953 2776.6953 L1716.1953 2779.2969 C1715.3984 2779.0469 1714.4922 2778.9922 1713.5938 2778.9922 1711.2969 2778.9922 1710.0938 2780.2422 1710.1484 2782.5469 L1710.1484 2799.3438 1715.8438 2799.3438 1715.8438 2802.0938 1710.1484 2802.0938 1710.1484 2808.7422 1707.1484 2807.4453 1707.1484 2802.0938 1702.1484 2802.0938 1702.1484 2799.3438 1707.1484 2799.3438 1707.1484 2783.6953 Z" fill="#000000"/>
<path d="M1743.1484 2788.8438 C1743.1484 2796.6953 1740.0938 2802.8438 1731.6953 2802.8438 1724.2422 2802.8438 1720.4922 2796.3438 1720.4922 2789.5469 1720.4922 2782.6953 1723.9922 2776.25 1731.4922 2776.25 1737.5469 2776.25 1741.2969 2778.9922 1742.8438 2784.9922 L1739.6953 2784.9922 C1738.9453 2781.5469 1735.9922 2778.9922 1732.4453 2778.9922 1726.2969 2778.9922 1723.8438 2783.4922 1723.7422 2788.8438 L1743.1484 2788.8438 Z M1723.8438 2791.5938 C1724.2422 2795.9922 1726.8438 2800.0938 1731.7422 2800.0938 1736.9453 2800.0938 1739.5469 2796.4453 1739.8984 2791.5938 L1723.8438 2791.5938 Z" fill="#000000"/>
<path d="M1752.9922 2792.0938 C1753.0938 2796.8984 1755.4453 2800.0938 1759.8984 2800.0938 1760.4922 2800.0938 1761.1484 2799.9453 1761.7422 2799.8984 L1761.7422 2802.7969 C1760.7422 2802.8438 1759.7422 2802.8984 1758.7422 2802.8438 1756.2422 2802.7422 1753.9922 2800.9453 1753.0938 2798.3984 L1752.9922 2798.3984 1752.8438 2802.0938 1749.7422 2802.0938 C1749.8438 2800.3984 1750.0469 2798.3984 1749.9922 2796.4453 L1749.9922 2777 1752.9922 2777 1752.9922 2792.0938 Z" fill="#000000"/>
<path d="M1787.6953 2772.1953 C1785.3984 2778.0938 1783.2969 2785.7969 1783.2969 2792.6484 1783.2969 2799.0938 1785.0469 2806.3438 1787.6953 2813.0938 L1785.1953 2813.0938 C1782.6484 2806.5938 1779.7969 2799.6953 1779.7969 2792.6484 1779.7969 2785.4453 1782.6953 2778.7422 1785.1484 2772.1953 L1787.6953 2772.1953 Z" fill="#000000"/>
<path d="M1798.4922 2777 1798.5469 2795.8438 1815.8438 2777 1820.2969 2777 1802.1484 2796.7969 1818.7969 2813.0938 1814.6953 2813.0938 1798.5469 2797.1953 1798.4922 2813.0938 1795.2969 2813.0938 1795.2969 2777 1798.4922 2777 Z" fill="#000000"/>
<path d="M1826.6484 2801.7969 1829.2422 2801.7969 1829.2422 2813.0938 1826.6484 2813.0938 1826.6484 2801.7969 Z" fill="#000000"/>
<path d="M1839.7422 2772.1953 C1842.1953 2778.7422 1845.0938 2785.4453 1845.0938 2792.6484 1845.0938 2799.6953 1842.2422 2806.5938 1839.6953 2813.0938 L1837.1953 2813.0938 C1839.8438 2806.3438 1841.5938 2799.0938 1841.5938 2792.6484 1841.5938 2785.7969 1839.4922 2778.0938 1837.1953 2772.1953 L1839.7422 2772.1953 Z" fill="#000000"/>
</g>
<g>
<rect x="1757.3125" y="2579.2813" width="113.4375" height="113.5625" stroke="#000000" stroke-width="5" stroke-linejoin="miter" fill="#ffffc0"/>
<rect x="1643.9375" y="2579.2813" width="113.4375" height="113.5625" stroke="#000000" stroke-width="5" stroke-linejoin="miter" fill="#ffffc0"/>
<rect x="1530.5625" y="2579.2813" width="113.4375" height="113.5625" stroke="#000000" stroke-width="5" stroke-linejoin="miter" fill="#ffffc0"/>
<rect x="1417.1875" y="2579.2813" width="113.4375" height="113.5625" stroke="#000000" stroke-width="5" stroke-linejoin="miter" fill="#ffffc0"/>
<g>
<path d="M1451.4922 2625 1451.5469 2643.8438 1468.8438 2625 1473.2969 2625 1455.1484 2644.7969 1471.7969 2661.0938 1467.6953 2661.0938 1451.5469 2645.1953 1451.4922 2661.0938 1448.2969 2661.0938 1448.2969 2625 1451.4922 2625 Z" fill="#000000"/>
<path d="M1478.6484 2649.7969 1481.2422 2649.7969 1481.2422 2661.0938 1478.6484 2661.0938 1478.6484 2649.7969 Z" fill="#000000"/>
</g>
<g>
<path d="M1489.1172 2636.875 C1494.9922 2636.875 1495.5156 2628.9531 1495.5156 2624.8359 1495.5156 2620.7188 1494.9922 2612.7969 1489.1172 2612.7969 1483.2344 2612.7969 1482.7188 2620.7188 1482.7188 2624.8359 1482.7188 2628.9531 1483.2344 2636.875 1489.1172 2636.875 Z M1489.1172 2639.2734 C1481.5547 2639.2734 1479.9141 2631.875 1479.9141 2624.8359 1479.9141 2617.7969 1481.5547 2610.3984 1489.1172 2610.3984 1496.6797 2610.3984 1498.3125 2617.7969 1498.3125 2624.8359 1498.3125 2631.875 1496.6797 2639.2734 1489.1172 2639.2734 Z" fill="#000000"/>
</g>
<g>
<path d="M1568.4922 2625 1568.5469 2643.8438 1585.8438 2625 1590.2969 2625 1572.1484 2644.7969 1588.7969 2661.0938 1584.6953 2661.0938 1568.5469 2645.1953 1568.4922 2661.0938 1565.2969 2661.0938 1565.2969 2625 1568.4922 2625 Z" fill="#000000"/>
<path d="M1595.6484 2649.7969 1598.2422 2649.7969 1598.2422 2661.0938 1595.6484 2661.0938 1595.6484 2649.7969 Z" fill="#000000"/>
</g>
<g>
<path d="M1599.6328 2630.7188 C1601.875 2631.7969 1604.0391 2633.1172 1605.875 2634.875 L1605.875 2610 1608.4766 2610 1608.4766 2637.6797 1605.9922 2637.6797 C1604.1953 2635.875 1601.9922 2634.2734 1599.6328 2633.3125 L1599.6328 2630.7188 Z" fill="#000000"/>
</g>
<g>
<path d="M1678.4922 2625 1678.5469 2643.8438 1695.8438 2625 1700.2969 2625 1682.1484 2644.7969 1698.7969 2661.0938 1694.6953 2661.0938 1678.5469 2645.1953 1678.4922 2661.0938 1675.2969 2661.0938 1675.2969 2625 1678.4922 2625 Z" fill="#000000"/>
<path d="M1706.6484 2649.7969 1709.2422 2649.7969 1709.2422 2661.0938 1706.6484 2661.0938 1706.6484 2649.7969 Z" fill="#000000"/>
</g>
<g>
<path d="M1725.3984 2610 1725.3984 2612.3984 1711.1172 2612.3984 C1715.3984 2616.5156 1725.0391 2624.6328 1725.0391 2631.1172 1725.0391 2635.9141 1721.1953 2638.2734 1716.7578 2638.2734 1711.9531 2638.2734 1708.2734 2635.2344 1708.2734 2630.3594 L1711.0781 2630.3594 C1711.0781 2633.5938 1713.3594 2635.875 1716.6797 2635.875 1719.6797 2635.875 1722.2344 2634.1953 1722.2344 2630.9531 1722.2344 2625.9922 1711.5938 2615.9531 1707.9922 2612.7188 L1707.9922 2610 1725.3984 2610 Z" fill="#000000"/>
</g>
<g>
<path d="M1791.4922 2625 1791.5469 2643.8438 1808.8438 2625 1813.2969 2625 1795.1484 2644.7969 1811.7969 2661.0938 1807.6953 2661.0938 1791.5469 2645.1953 1791.4922 2661.0938 1788.2969 2661.0938 1788.2969 2625 1791.4922 2625 Z" fill="#000000"/>
<path d="M1819.6484 2649.7969 1822.2422 2649.7969 1822.2422 2661.0938 1819.6484 2661.0938 1819.6484 2649.7969 Z" fill="#000000"/>
</g>
<g>
<path d="M1827.9922 2624.1563 C1831.7969 2624.7188 1836.0781 2623.1563 1836.0781 2618.7188 1836.0781 2614.7578 1833.0391 2612.7969 1829.3594 2612.7969 1826.1563 2612.7969 1823.1172 2614.875 1823.0781 2618.3125 L1820.2734 2618.3125 C1820.4375 2613.0391 1824.5156 2610.3984 1829.3984 2610.3984 1834.0391 2610.3984 1838.875 2613.1953 1838.875 2618.3984 1838.875 2622.1172 1836.3125 2624.6328 1832.7969 2625.3984 L1832.7969 2625.4766 C1835.875 2626.1172 1838.4375 2628.3594 1838.4375 2631.7188 1838.4375 2637.0781 1833.8359 2639.2734 1829.1563 2639.2734 1824.8359 2639.2734 1820.6797 2636.5156 1820.6797 2631.8359 L1823.4766 2631.8359 C1823.8359 2635.0391 1825.9922 2636.875 1829.5156 2636.875 1832.7578 2636.875 1835.6328 2635.0781 1835.6328 2631.875 1835.6328 2627.7188 1831.5547 2626.2734 1827.9922 2626.6797 L1827.9922 2624.1563 Z" fill="#000000"/>
</g>
</g>
</g>
</svg>
